<svg width="2857" height="2857" viewBox="0 0 2857 2857" fill="none" xmlns="http://www.w3.org/2000/svg">
<path d="M337.836 1266.38C338.816 1266.55 339.807 1266.69 340.809 1266.79C333.029 1319.57 329 1373.56 329 1428.5C329 2035.74 821.263 2528 1428.5 2528C1800.11 2528 2128.66 2343.64 2327.69 2061.4C2328.58 2061.86 2329.49 2062.32 2330.4 2062.75C2130.86 2345.98 1801.29 2531 1428.5 2531C819.606 2531 326 2037.39 326 1428.5C326 1373.42 330.039 1319.29 337.836 1266.38ZM1598.85 339.081C2126.86 420.977 2531 877.542 2531 1428.5C2531 1602.85 2490.53 1767.74 2418.47 1914.3C2417.66 1913.69 2416.84 1913.09 2416.01 1912.5C2487.73 1766.46 2528 1602.18 2528 1428.5C2528 879.081 2125.01 423.784 1598.5 342.063C1598.65 341.08 1598.77 340.086 1598.85 339.081ZM1355.01 328.411C1355 328.607 1355 328.803 1355 329C1355 329.816 1355.05 330.62 1355.16 331.407C864.92 363.695 462.455 717.291 356.378 1183.58C355.42 1183.31 354.448 1183.07 353.464 1182.86C459.851 715.309 863.429 360.763 1355.01 328.411ZM1428.5 326C1457.76 326 1486.75 327.14 1515.44 329.378C1515.3 330.362 1515.19 331.357 1515.11 332.362C1486.53 330.135 1457.65 329 1428.5 329C1415.61 329 1402.77 329.222 1389.99 329.662C1389.99 329.442 1390 329.222 1390 329C1390 328.209 1389.95 327.429 1389.85 326.665C1402.68 326.223 1415.56 326 1428.5 326Z" fill="#E6E6E6"/>
<path d="M2660.73 2145.66C2661.56 2146.22 2662.4 2146.77 2663.26 2147.28C2415.62 2571.76 1955.37 2857 1428.5 2857C1274.55 2857 1126.29 2832.65 987.354 2787.58C987.814 2786.68 988.253 2785.78 988.67 2784.85C1127.2 2829.74 1275.02 2854 1428.5 2854C1954.32 2854 2413.64 2569.31 2660.73 2145.66ZM32.1855 1125.57C33.1507 1125.79 34.147 1125.93 35.167 1125.98C14.0969 1223.48 3 1324.69 3 1428.5C3 2020.36 363.704 2527.98 877.274 2743.51C877 2744.48 876.749 2745.46 876.522 2746.45C361.653 2530.56 0 2021.76 0 1428.5C0 1324.56 11.1031 1223.21 32.1855 1125.57ZM1428.5 0C2217.44 0 2857 639.561 2857 1428.5C2857 1656.42 2803.62 1871.87 2708.69 2063.03C2707.8 2062.58 2706.89 2062.16 2705.97 2061.76C2800.72 1870.98 2854 1655.96 2854 1428.5C2854 641.218 2215.78 3 1428.5 3C872.959 3 391.642 320.792 156.42 784.501C155.513 784.079 154.595 783.679 153.664 783.302C389.352 318.531 871.727 0 1428.5 0ZM104.063 892.253C104.95 892.719 105.85 893.162 106.763 893.583C80.6818 957.964 59.1684 1024.68 42.624 1093.34C41.7076 1092.95 40.75 1092.64 39.7598 1092.42C56.3496 1023.62 77.9178 956.765 104.063 892.253Z" fill="#E6E6E6"/>
<path d="M345 1138C392.496 1138 431 1176.73 431 1224.5C431 1272.27 392.496 1311 345 1311C297.504 1311 259 1272.27 259 1224.5C259 1206.36 264.549 1189.53 274.032 1175.63C274.383 1176 274.749 1176.35 275.13 1176.68C265.898 1190.3 260.5 1206.77 260.5 1224.5C260.5 1271.45 298.34 1309.5 345 1309.5C391.66 1309.5 429.5 1271.45 429.5 1224.5C429.5 1177.55 391.66 1139.5 345 1139.5C328.678 1139.5 313.436 1144.16 300.515 1152.22C300.218 1151.81 299.903 1151.42 299.574 1151.04C312.756 1142.77 328.324 1138 345 1138Z" fill="#E6E6E6"/>
<path d="M2367 1898.5C2413.65 1898.5 2451.5 1936.76 2451.5 1984C2451.5 2031.24 2413.65 2069.5 2367 2069.5C2320.35 2069.5 2282.5 2031.24 2282.5 1984C2282.5 1936.76 2320.35 1898.5 2367 1898.5Z" stroke="#E6E6E6" stroke-width="3"/>
<path d="M131 779.5C163.297 779.5 189.5 805.903 189.5 838.5C189.5 871.097 163.297 897.5 131 897.5C98.7031 897.5 72.5 871.097 72.5 838.5C72.5 805.903 98.7031 779.5 131 779.5Z" stroke="#E6E6E6" stroke-width="3"/>
<path d="M345 1183.5C367.351 1183.5 385.5 1201.84 385.5 1224.5C385.5 1247.16 367.351 1265.5 345 1265.5C322.649 1265.5 304.5 1247.16 304.5 1224.5C304.5 1201.84 322.649 1183.5 345 1183.5Z" stroke="#E6E6E6" stroke-width="3"/>
<path d="M285.5 1145C294.586 1145 302 1152.58 302 1162C302 1171.42 294.586 1179 285.5 1179C276.414 1179 269 1171.42 269 1162C269 1152.58 276.414 1145 285.5 1145Z" stroke="#E6E6E6" stroke-width="2"/>
<path d="M1557 249C1604.5 249 1643 287.727 1643 335.5C1643 383.273 1604.5 422 1557 422C1509.5 422 1471 383.273 1471 335.5C1471 317.365 1476.55 300.533 1486.03 286.629C1486.38 286.996 1486.75 287.347 1487.13 287.682C1477.9 301.304 1472.5 317.767 1472.5 335.5C1472.5 382.452 1510.34 420.5 1557 420.5C1603.66 420.5 1641.5 382.452 1641.5 335.5C1641.5 288.548 1603.66 250.5 1557 250.5C1540.68 250.5 1525.44 255.155 1512.51 263.219C1512.22 262.811 1511.9 262.417 1511.57 262.037C1524.76 253.774 1540.32 249 1557 249Z" fill="#E6E6E6"/>
<path d="M1557 294.5C1579.35 294.5 1597.5 312.84 1597.5 335.5C1597.5 358.16 1579.35 376.5 1557 376.5C1534.65 376.5 1516.5 358.16 1516.5 335.5C1516.5 312.84 1534.65 294.5 1557 294.5Z" stroke="#E6E6E6" stroke-width="3"/>
<path d="M1497.5 256C1506.59 256 1514 263.584 1514 273C1514 282.416 1506.59 290 1497.5 290C1488.41 290 1481 282.416 1481 273C1481 263.584 1488.41 256 1497.5 256Z" stroke="#E6E6E6" stroke-width="2"/>
<path d="M934 2700.5C966.297 2700.5 992.5 2726.9 992.5 2759.5C992.5 2792.1 966.297 2818.5 934 2818.5C901.703 2818.5 875.5 2792.1 875.5 2759.5C875.5 2726.9 901.703 2700.5 934 2700.5Z" stroke="#E6E6E6" stroke-width="3"/>
<path d="M2687.5 2059.5C2712.89 2059.5 2733.5 2080.3 2733.5 2106C2733.5 2131.7 2712.89 2152.5 2687.5 2152.5C2662.11 2152.5 2641.5 2131.7 2641.5 2106C2641.5 2080.3 2662.11 2059.5 2687.5 2059.5Z" stroke="#E6E6E6" stroke-width="3"/>
<path d="M36.5 1092C45.5863 1092 53 1099.58 53 1109C53 1118.42 45.5863 1126 36.5 1126C27.4137 1126 20 1118.42 20 1109C20 1099.58 27.4137 1092 36.5 1092Z" stroke="#E6E6E6" stroke-width="2"/>
<path d="M1372.5 312C1381.59 312 1389 319.584 1389 329C1389 338.416 1381.59 346 1372.5 346C1363.41 346 1356 338.416 1356 329C1356 319.584 1363.41 312 1372.5 312Z" stroke="#E6E6E6" stroke-width="2"/>
</svg>
